<svg version="1.2" xmlns="http://www.w3.org/2000/svg" viewBox="0 0 1320 1320" width="1320" height="1320">
	<title>under-construction-symbol-vectorportal-ai</title>
	<style>
		.s0 { fill: #d6c79e } 
		.s1 { fill: #f1e2cc } 
		.s2 { fill: #677580 } 
		.s3 { fill: #7b91a0 } 
		.s4 { fill: #a2b5c5 } 
		.s5 { fill: #f1f1f2 } 
		.s6 { fill: #ffffff } 
		.s7 { fill: #8d84a9 } 
		.s8 { fill: #8dab86 } 
		.s9 { fill: #a589a9 } 
		.s10 { fill: #d2614c } 
		.s11 { fill: #bbbdbf } 
		.s12 { fill: #a6a8ab } 
		.s13 { fill: none;stroke: #faa91a;stroke-linecap: round;stroke-linejoin: round;stroke-width: 8 } 
		.s14 { fill: none;stroke: #faa91a;stroke-linecap: round;stroke-linejoin: round;stroke-width: 7.9 } 
		.s15 { fill: #515d66 } 
		.s16 { fill: none;stroke: #404041;stroke-linecap: round;stroke-linejoin: round;stroke-width: 4 } 
		.s17 { fill: #404041 } 
		.s18 { fill: #e6e7e8;stroke: #faa91a;stroke-linecap: round;stroke-linejoin: round;stroke-width: 8 } 
		.s19 { fill: none;stroke: #404041;stroke-linecap: round;stroke-linejoin: round;stroke-width: 8 } 
		.s20 { fill: #faa91a } 
		.s21 { fill: #dd9119 } 
		.s22 { fill: #b2d4f0 } 
		.s23 { fill: #7fb3d4 } 
		.s24 { mix-blend-mode: multiply;fill: #e6e7e8 } 
		.s25 { fill: #d0d2d3 } 
		.s26 { fill: none;stroke: #ffffff;stroke-linecap: round;stroke-linejoin: round;stroke-width: 4 } 
	</style>
	<g id="_Artboards_">
	</g>
	<g id="Vectorportal.com">
		<g id="&lt;Group&gt;">
			<g id="&lt;Group&gt;">
				<path id="&lt;Path&gt;" class="s0" d="m1197 741c0-293.8-238.2-532-532-532-293.8 0-532 238.2-532 532 0 293.8 238.2 532 532 532 293.8 0 532-238.2 532-532z"/>
			</g>
			<g id="&lt;Group&gt;">
				<path id="&lt;Path&gt;" class="s1" d="m1177 761c0-271.7-220.3-492-492-492-271.7 0-492 220.3-492 492 0 271.7 220.3 492 492 492 271.7 0 492-220.3 492-492z"/>
			</g>
			<path id="&lt;Path&gt;" class="s2" d="m1289.1 1041.7h-1150c-4.4 0-8.1-3.6-8.1-8 0-4.4 3.7-8 8.1-8h1150c4.4 0 8 3.6 8 8 0 4.4-3.6 8-8 8z"/>
			<g id="&lt;Group&gt;">
				<path id="&lt;Path&gt;" class="s3" d="m1138.3 1025.7h-553.8c-7.9 0-14.4-6.5-14.4-14.4 0-7.9 6.5-14.4 14.4-14.4h553.8c7.9 0 14.4 6.5 14.4 14.4 0 7.9-6.5 14.4-14.4 14.4z"/>
				<g id="&lt;Group&gt;">
					<path id="&lt;Path&gt;" class="s3" d="m724.4 997.9h-65.9c-2.8 0-5.1-2.3-5.1-5 0-2.8 2.3-5.1 5.1-5.1h65.9c2.8 0 5.1 2.3 5.1 5.1 0 2.7-2.3 5-5.1 5z"/>
					<path id="&lt;Path&gt;" class="s3" d="m1070.2 997.9h-65.9c-2.8 0-5-2.3-5-5 0-2.8 2.2-5.1 5-5.1h65.9c2.8 0 5.1 2.3 5.1 5.1 0 2.7-2.3 5-5.1 5z"/>
				</g>
				<path id="&lt;Path&gt;" class="s3" d="m1127.5 589.2l-528.9-0.5c-9 0-16.4 9-16.3 20.2l0.6 358.8c0 11 7.3 20.1 16.3 20.1h527.9c9 0 16.3-9 16.3-20.1l0.4-358.3c0-11.1-7.3-20.2-16.3-20.2z"/>
				<path id="&lt;Path&gt;" class="s4" d="m1119.1 589.1l-529.2-0.5c-9 0-16.3 9.1-16.3 20.2l0.6 358.9c0.1 11 7.4 20.1 16.4 20.1h528.1c9 0 16.3-9 16.3-20.1l0.4-358.4c0-11.1-7.3-20.2-16.3-20.2z"/>
				<g id="&lt;Group&gt;">
					<path id="&lt;Path&gt;" class="s5" d="m1113.3 606.5l-517.6-0.5c-4.4 0-8.1 4.5-8.1 10.1l0.6 344.3c0 5.5 3.7 10 8.1 10l516.7 0.1c4.4 0 8.1-4.5 8.1-10l0.3-344c0-5.5-3.6-10-8.1-10z"/>
				</g>
				<path id="&lt;Path&gt;" class="s6" d="m754.9 970.5h358.1c4.4 0 8.1-4.5 8.1-10l0.3-344c0-5.5-3.6-10-8.1-10l-181.3-0.2z"/>
				<path id="&lt;Path&gt;" class="s7" d="m698.9 703.5h-59.3c-10.7 0-19.3-8.7-19.3-19.4v-27.4c0-10.7 8.6-19.3 19.3-19.3h59.3c10.7 0 19.4 8.6 19.4 19.3v27.4c0 10.7-8.7 19.4-19.4 19.4z"/>
				<path id="&lt;Path&gt;" class="s8" d="m698.9 793.7h-59.3c-10.7 0-19.3-8.6-19.3-19.3v-27.4c0-10.7 8.6-19.4 19.3-19.4h59.3c10.7 0 19.4 8.7 19.4 19.4v27.4c0 10.7-8.7 19.3-19.4 19.3z"/>
				<path id="&lt;Path&gt;" class="s9" d="m698.9 884h-59.3c-10.7 0-19.3-8.7-19.3-19.4v-27.4c0-10.7 8.6-19.4 19.3-19.4h59.3c10.7 0 19.4 8.7 19.4 19.4v27.4c0 10.7-8.7 19.4-19.4 19.4z"/>
				<path id="&lt;Path&gt;" class="s10" d="m1086.3 929.1h-74.8c-10.7 0-19.4-8.7-19.4-19.4v-72.5c0-10.7 8.7-19.4 19.4-19.4h74.8c10.7 0 19.4 8.7 19.4 19.4v72.5c0 10.7-8.7 19.4-19.4 19.4z"/>
				<g id="&lt;Group&gt;">
					<path id="&lt;Compound Path&gt;" fill-rule="evenodd" class="s6" d="m1034 892.8c0 4.9-4 8.9-9 8.9-4.9 0-8.9-4-8.9-8.9 0-4.9 4-8.9 8.9-8.9 5 0 9 4 9 8.9zm-2.7 0c0-3.4-2.8-6.3-6.3-6.3-3.4 0-6.2 2.9-6.2 6.3 0 3.5 2.8 6.3 6.2 6.3 3.5 0 6.3-2.8 6.3-6.3z"/>
					<path id="&lt;Compound Path&gt;" fill-rule="evenodd" class="s6" d="m1059.8 892.8c0 4.9-4 8.9-8.9 8.9-5 0-9-4-9-8.9 0-4.9 4-8.9 9-8.9 4.9 0 8.9 4 8.9 8.9zm-2.7 0c0-3.4-2.8-6.3-6.2-6.3-3.5 0-6.3 2.9-6.3 6.3 0 3.5 2.8 6.3 6.3 6.3 3.4 0 6.2-2.8 6.2-6.3z"/>
					<path id="&lt;Path&gt;" class="s6" d="m1086.7 840.7c-1.7 0-3.1 1.1-3.7 2.7h-14.7c-0.4 0-0.7 0.1-1 0.4l-7.8 7.8h-44c-0.3 0-0.7 0.2-1 0.5-0.2 0.3-0.3 0.7-0.3 1l4.6 27.3c0.1 0.6 0.7 1.1 1.3 1.1h35.7c0.6 0 1.1-0.5 1.3-1.1l3.9-20.9c0.2-0.7-0.3-1.4-1-1.5-0.8-0.2-1.4 0.3-1.6 1l-3.7 19.8h-33.5l-4.1-24.6h42.9c0.4 0 0.7-0.1 1-0.4l7.8-7.8h14.3c0.5 1.5 2 2.5 3.6 2.5 2.2 0 4-1.7 4-3.9 0-2.1-1.8-3.9-4-3.9z"/>
					<path id="&lt;Path&gt;" class="s6" d="m1053.8 861.5c0-0.7-0.6-1.3-1.3-1.3h-28.9c-0.7 0-1.2 0.6-1.2 1.3 0 0.7 0.5 1.2 1.2 1.2h28.9c0.7 0 1.3-0.5 1.3-1.2z"/>
					<path id="&lt;Path&gt;" class="s6" d="m1025 869.6c-0.7 0-1.2 0.6-1.2 1.2 0 0.7 0.5 1.2 1.2 1.2h26.2c0.6 0 1.2-0.5 1.2-1.2 0-0.6-0.6-1.2-1.2-1.2z"/>
				</g>
				<path id="&lt;Path&gt;" class="s11" d="m821.8 829.5h-75.5c-3.9 0-7-3.1-7-7 0-3.8 3.1-7 7-7h75.5c3.8 0 7 3.2 7 7 0 3.9-3.2 7-7 7z"/>
				<path id="&lt;Path&gt;" class="s11" d="m960.2 829.5h-75.4c-3.9 0-7-3.1-7-7 0-3.8 3.1-7 7-7h75.4c3.9 0 7 3.2 7 7 0 3.9-3.1 7-7 7z"/>
				<path id="&lt;Path&gt;" class="s11" d="m863.8 829.5h-18.7c-3.9 0-7-3.1-7-7 0-3.8 3.1-7 7-7h18.7c3.8 0 7 3.2 7 7 0 3.9-3.2 7-7 7z"/>
				<path id="&lt;Path&gt;" class="s11" d="m795.5 853.6h-49.2c-3.9 0-7-3.1-7-7 0-3.8 3.1-7 7-7h49.2c3.9 0 7 3.2 7 7 0 3.9-3.1 7-7 7z"/>
				<path id="&lt;Path&gt;" class="s12" d="m1064.6 659.2h-75.5c-3.8 0-7-3.1-7-7 0-3.8 3.2-7 7-7h75.5c3.8 0 7 3.2 7 7 0 3.9-3.2 7-7 7z"/>
				<path id="&lt;Path&gt;" class="s12" d="m1106.6 659.2h-18.7c-3.8 0-7-3.1-7-7 0-3.8 3.2-7 7-7h18.7c3.8 0 7 3.2 7 7 0 3.9-3.2 7-7 7z"/>
				<path id="&lt;Path&gt;" class="s12" d="m1038.3 683.4h-49.2c-3.8 0-7-3.2-7-7 0-3.9 3.2-7 7-7h49.2c3.9 0 7 3.1 7 7 0 3.8-3.1 7-7 7z"/>
				<path id="&lt;Path&gt;" class="s11" d="m933 853.6h-88.9c-3.8 0-7-3.1-7-7 0-3.8 3.2-7 7-7h88.9c3.9 0 7 3.2 7 7 0 3.9-3.1 7-7 7z"/>
				<path id="&lt;Path&gt;" class="s11" d="m825.2 853.6h-9.1c-3.9 0-7-3.1-7-7 0-3.8 3.1-7 7-7h9.1c3.8 0 7 3.2 7 7 0 3.9-3.2 7-7 7z"/>
				<path id="&lt;Path&gt;" class="s10" d="m1063.1 724.6h-68.4c-5 0-9.1-4.1-9.1-9.2v-0.8c0-5.1 4.1-9.2 9.1-9.2h68.4c5 0 9.2 4.1 9.2 9.2v0.8c0 5.1-4.2 9.2-9.2 9.2z"/>
				<path id="&lt;Path&gt;" class="s10" d="m1103.8 724.6h-13.3c-5.1 0-9.2-4.1-9.2-9.2v-0.8c0-5.1 4.1-9.2 9.2-9.2h13.3c5.1 0 9.2 4.1 9.2 9.2v0.8c0 5.1-4.1 9.2-9.2 9.2z"/>
				<path id="&lt;Path&gt;" class="s11" d="m821.8 879.3h-75.5c-3.9 0-7-3.2-7-7 0-3.9 3.1-7 7-7h75.5c3.8 0 7 3.1 7 7 0 3.8-3.2 7-7 7z"/>
				<path id="&lt;Path&gt;" class="s11" d="m960.2 879.3h-75.4c-3.9 0-7-3.2-7-7 0-3.9 3.1-7 7-7h75.4c3.9 0 7 3.1 7 7 0 3.8-3.1 7-7 7z"/>
				<path id="&lt;Path&gt;" class="s11" d="m863.8 879.3h-18.7c-3.9 0-7-3.2-7-7 0-3.9 3.1-7 7-7h18.7c3.8 0 7 3.1 7 7 0 3.8-3.2 7-7 7z"/>
				<path id="&lt;Path&gt;" class="s11" d="m795.5 903.4h-49.2c-3.9 0-7-3.1-7-7 0-3.8 3.1-7 7-7h49.2c3.9 0 7 3.2 7 7 0 3.9-3.1 7-7 7z"/>
				<path id="&lt;Path&gt;" class="s11" d="m933 903.4h-88.9c-3.8 0-7-3.1-7-7 0-3.8 3.2-7 7-7h88.9c3.9 0 7 3.2 7 7 0 3.9-3.1 7-7 7z"/>
				<path id="&lt;Path&gt;" class="s11" d="m825.2 903.4h-9.1c-3.9 0-7-3.1-7-7 0-3.8 3.1-7 7-7h9.1c3.8 0 7 3.2 7 7 0 3.9-3.2 7-7 7z"/>
				<path id="&lt;Path&gt;" class="s4" d="m1070.1 1025.7h-618c-7.9 0-14.4-6.5-14.4-14.4 0-7.9 6.5-14.4 14.4-14.4h618c7.9 0 14.4 6.5 14.4 14.4 0 7.9-6.5 14.4-14.4 14.4z"/>
				<path id="&lt;Path&gt;" class="s3" d="m632.3 996.9c2.6 6.3 8.8 10.8 16 10.8h225.6c7.2 0 13.4-4.5 16-10.8z"/>
			</g>
			<g id="&lt;Group&gt;">
				<path id="&lt;Path&gt;" class="s13" d="m321.2 223.8l-67.6-48.7v760.8h67.6z"/>
				<path id="&lt;Path&gt;" class="s14" d="m252.8 928.4l68.3-70.2h-67.5l65.5-67.3h-65.5"/>
				<path id="&lt;Path&gt;" class="s14" d="m252.8 790.6l68.3-70.3h-67.5l65.5-67.3h-65.5"/>
				<path id="&lt;Path&gt;" class="s14" d="m252.8 652.7l68.3-70.2h-67.5l65.5-67.3h-65.5"/>
				<path id="&lt;Path&gt;" class="s14" d="m252.8 514.9l68.3-70.2h-67.5l65.5-67.3h-65.5"/>
			</g>
			<path id="&lt;Path&gt;" class="s15" d="m349 989.3h-116.6v-67.9h116.6z"/>
			<path id="&lt;Path&gt;" class="s2" d="m321.2 989.3h-88.8v-67.9h88.8z"/>
			<path id="&lt;Path&gt;" class="s15" d="m381.3 1025.7h-181.2v-68h181.2z"/>
			<path id="&lt;Path&gt;" class="s2" d="m338.1 1025.7h-138v-68h138z"/>
			<path id="&lt;Path&gt;" class="s16" d="m166.9 306.2l86.7-131.1 547.7 131.2"/>
			<path id="&lt;Path&gt;" class="s17" d="m809.4 307.1c0-4-3.3-7.3-7.4-7.3-4 0-7.3 3.3-7.3 7.3 0 4.1 3.3 7.4 7.3 7.4 4.1 0 7.4-3.3 7.4-7.4z"/>
			<path id="&lt;Path&gt;" class="s17" d="m174.3 306.2c0-4-3.3-7.3-7.4-7.3-4 0-7.3 3.3-7.3 7.3 0 4.1 3.3 7.4 7.3 7.4 4.1 0 7.4-3.3 7.4-7.4z"/>
			<g id="&lt;Group&gt;">
				<path id="&lt;Path&gt;" class="s13" d="m166.9 306.2l-48.6 67.6h753.2l-70.2-67.6z"/>
				<path id="&lt;Path&gt;" class="s14" d="m871.5 374.6l-70.2-68.3v67.5l-67.3-65.5v65.5"/>
				<path id="&lt;Path&gt;" class="s14" d="m733.7 374.6l-70.2-68.3v67.5l-67.3-65.5v65.5"/>
				<path id="&lt;Path&gt;" class="s14" d="m595.9 374.6l-70.2-68.3v67.5l-67.3-65.5v65.5"/>
				<path id="&lt;Path&gt;" class="s14" d="m458.1 374.6l-70.3-68.3v67.5l-67.2-65.5v65.5"/>
				<path id="&lt;Path&gt;" class="s14" d="m320.3 374.6l-70.3-68.3v67.5l-67.3-65.5v65.5"/>
			</g>
			<g id="&lt;Group&gt;">
				<path id="&lt;Path&gt;" class="s16" d="m871.5 506c-13.1 0-23.8-10.7-23.8-23.8v-108.4c0-13.1 10.7-23.8 23.8-23.8 13.1 0 23.8 10.7 23.8 23.8v108.4c0 13.1-10.7 23.8-23.8 23.8z"/>
				<path id="&lt;Path&gt;" class="s18" d="m895.3 373.8c0-13.2-10.7-23.8-23.8-23.8-13.1 0-23.8 10.6-23.8 23.8 0 13.1 10.7 23.8 23.8 23.8 13.1 0 23.8-10.7 23.8-23.8z"/>
				<g id="&lt;Group&gt;">
					<path id="&lt;Path&gt;" class="s19" d="m871.5 524.5c-13.1 0-23.8 10.6-23.8 23.8 0 13.1 10.7 23.7 23.8 23.7 13.1 0 23.8-10.6 23.8-23.7"/>
					<path id="&lt;Path&gt;" class="s19" d="m871.7 504.5v20"/>
				</g>
				<path id="&lt;Path&gt;" class="s20" d="m885.1 511.1h-27.2c-7.6 0-14.4-6.4-15.2-14.6l-1.8-17.6c-1-9.7 5.6-18.2 14.5-18.2h32.1c9 0 15.5 8.5 14.6 18.2l-1.8 17.6c-0.8 8.2-7.6 14.6-15.2 14.6z"/>
				<g id="&lt;Group&gt;">
					<path id="&lt;Path&gt;" class="s16" d="m853.1 475.4h36.8"/>
					<path id="&lt;Path&gt;" class="s16" d="m853.1 485.9h36.8"/>
					<path id="&lt;Path&gt;" class="s16" d="m853.1 496.3h36.8"/>
				</g>
			</g>
			<path id="&lt;Path&gt;" class="s20" d="m305.6 280.2h-79.5v127.7h127.7v-79.5z"/>
			<path id="&lt;Path&gt;" class="s21" d="m226.1 407.9h127.7v-11.2h-127.7z"/>
			<path id="&lt;Path&gt;" class="s22" d="m299 291h-61.5v78.5h91.1v-48.9z"/>
			<path id="&lt;Path&gt;" class="s23" d="m321.2 313.2v48.2h-83.7v8.1h91.1v-48.9z"/>
			<path id="&lt;Path&gt;" class="s24" d="m782 605.3c-10.5 1.8-17.6 11.8-15.8 22.3l19.6 115.5c1.8 10.5 11.8 17.6 22.4 15.8l189.6-32.2c10.5-1.8 17.6-11.8 15.8-22.4l-19.6-115.3-115.5-0.1z"/>
			<path id="&lt;Path&gt;" class="s11" d="m978.6 695l-189.5 32.3c-10.6 1.8-20.6-5.3-22.4-15.8l-19.6-115.5c-1.8-10.5 5.3-20.5 15.8-22.3l189.6-32.3c10.5-1.8 20.5 5.3 22.3 15.8l19.7 115.5c1.8 10.5-5.3 20.6-15.9 22.3z"/>
			<path id="&lt;Path&gt;" class="s25" d="m974.2 688.9l-183 31.2c-8.7 1.5-17-4.4-18.5-13.1l-18.5-108.8c-1.5-8.7 4.4-16.9 13.1-18.4l183.1-31.2c8.7-1.5 16.9 4.4 18.4 13.1l18.5 108.8c1.5 8.7-4.4 16.9-13.1 18.4z"/>
			<g id="&lt;Group&gt;">
				<path id="&lt;Path&gt;" class="s19" d="m871.5 572c13.1 0 23.8-10.6 23.8-23.7"/>
				<path id="&lt;Path&gt;" class="s16" d="m871.7 563.4l-4.7 18.7"/>
			</g>
			<path id="&lt;Path&gt;" class="s26" d="m287 297l-22.8 22.8"/>
			<path id="&lt;Path&gt;" class="s26" d="m285.6 315.6l-22.7 22.8"/>
		</g>
	</g>
</svg>