<svg width="91" height="91" viewBox="0 0 91 91" fill="none" xmlns="http://www.w3.org/2000/svg">
<g clip-path="url(#clip0_72_159)">
<path d="M69.4062 0.214294H21.5938C9.94399 0.214294 0.5 9.65829 0.5 21.308V69.1205C0.5 80.7703 9.94399 90.2143 21.5938 90.2143H69.4062C81.056 90.2143 90.5 80.7703 90.5 69.1205V21.308C90.5 9.65829 81.056 0.214294 69.4062 0.214294Z" fill="#EEEEEE"/>
<path fill-rule="evenodd" clip-rule="evenodd" d="M57.1063 10.058H45.3877V33.4957H57.1063C63.5751 33.4957 68.8253 28.2454 68.8253 21.7767C68.8253 15.3079 63.5751 10.058 57.1063 10.058ZM45.3873 10.058H33.6687C27.1999 10.058 21.9497 15.3079 21.9497 21.7767C21.9497 28.2454 27.1999 33.4957 33.6687 33.4957H45.3873V10.058ZM33.6687 80.3705C40.1374 80.3705 45.3873 75.1207 45.3873 68.6519V56.9329V33.4957H33.6687C27.1999 33.4957 21.9497 38.7456 21.9497 45.2143C21.9497 51.6807 27.1961 56.9291 33.6617 56.9329C27.1961 56.9367 21.9497 62.1855 21.9497 68.6519C21.9497 75.1207 27.1999 80.3705 33.6687 80.3705ZM68.8253 45.2143C68.8253 51.6831 63.5751 56.9329 57.1063 56.9329C50.6376 56.9329 45.3877 51.6831 45.3877 45.2143C45.3877 38.7456 50.6376 33.4957 57.1063 33.4957C63.5751 33.4957 68.8253 38.7456 68.8253 45.2143Z" fill="#0021F3"/>
</g>
<defs>
<clipPath id="clip0_72_159">
<rect width="90" height="90" fill="white" transform="translate(0.5 0.214294)"/>
</clipPath>
</defs>
</svg>
