<svg width="91" height="91" viewBox="0 0 91 91" fill="none" xmlns="http://www.w3.org/2000/svg">
<path fill-rule="evenodd" clip-rule="evenodd" d="M21.5938 0.714294H69.4062C81.056 0.714294 90.5 10.1583 90.5 21.808V69.6205C90.5 81.2703 81.056 90.7143 69.4062 90.7143H21.5938C9.94399 90.7143 0.5 81.2703 0.5 69.6205V21.808C0.5 10.1583 9.94399 0.714294 21.5938 0.714294ZM62.0325 71.1674C60.7388 70.3712 59.6963 69.2257 59.0253 67.8627L53.0178 71.3615C54.2955 73.7899 56.2487 75.7967 58.6417 77.1397C61.0347 78.4827 63.7652 79.1044 66.5038 78.9299C73.5322 78.9299 78.7663 75.2793 78.7663 68.6165C78.7663 62.4374 75.2113 59.6896 68.9225 56.9924L67.0719 56.1993C63.8966 54.8184 62.5213 53.9184 62.5213 51.6993C62.5257 51.252 62.6232 50.8106 62.8076 50.4031C62.9921 49.9957 63.2594 49.6311 63.5925 49.3326C63.9256 49.0342 64.3173 48.8084 64.7425 48.6696C65.1677 48.5309 65.6171 48.4822 66.0622 48.5268C67.0823 48.5117 68.0828 48.807 68.9312 49.3736C69.7796 49.9402 70.4357 50.7513 70.8125 51.6993L76.5978 48.0009C75.6192 46.0889 74.0993 44.5073 72.2277 43.4535C70.3562 42.3997 68.2157 41.9202 66.0734 42.0749C59.4556 42.0749 55.2369 46.3021 55.2369 51.8512C55.2369 57.8755 58.7806 60.7246 64.1244 62.9999L65.975 63.793C69.35 65.2696 71.3638 66.1752 71.3638 68.7065C71.3638 70.8299 69.4034 72.3627 66.3378 72.3627C64.8188 72.3779 63.3263 71.9636 62.0325 71.1674ZM37.6447 72.3093C35.1022 72.3093 34.0447 70.5655 32.8831 68.504L26.8587 72.1574C27.8118 74.2714 29.3822 76.0475 31.3635 77.2522C33.3448 78.457 35.6443 79.034 37.9597 78.9074C44.51 78.9074 49.01 75.4199 49.01 67.7587V42.4968H41.6103V67.6602C41.6103 71.3587 40.0747 72.3093 37.6447 72.3093Z" fill="white"/>
</svg>
