<svg width="91" height="91" viewBox="0 0 91 91" fill="none" xmlns="http://www.w3.org/2000/svg">
<g clip-path="url(#clip0_72_132)">
<path d="M69.4062 0.714294H21.5938C9.94399 0.714294 0.5 10.1583 0.5 21.808V69.6205C0.5 81.2703 9.94399 90.7143 21.5938 90.7143H69.4062C81.056 90.7143 90.5 81.2703 90.5 69.6205V21.808C90.5 10.1583 81.056 0.714294 69.4062 0.714294Z" fill="#EEEEEE"/>
<path d="M45.5004 52.3768C49.1229 52.3768 52.0591 49.4402 52.0591 45.818C52.0591 42.1959 49.1229 39.2593 45.5004 39.2593C41.8783 39.2593 38.9417 42.1959 38.9417 45.818C38.9417 49.4402 41.8783 52.3768 45.5004 52.3768Z" fill="#0021F3"/>
<path d="M45.5007 32.4825C54.3066 32.4825 62.4871 33.7461 68.6553 35.8698C76.087 38.4282 80.6562 42.3063 80.6562 45.818C80.6562 49.4774 75.8138 53.5974 67.833 56.2415C61.7995 58.2405 53.8598 59.2839 45.5007 59.2839C36.9303 59.2839 28.8145 58.3045 22.7128 56.2193C14.9932 53.5809 10.3438 49.4078 10.3438 45.818C10.3438 42.3347 14.7066 38.4865 22.0339 35.9321C28.2249 33.7735 36.6072 32.4825 45.4993 32.4825H45.5007Z" stroke="#0021F3" stroke-width="4"/>
<path d="M33.8919 39.1886C38.2913 31.5604 43.4723 25.105 48.3935 20.823C54.3222 15.6631 59.9648 13.6423 63.0065 15.3962C66.1765 17.2244 67.3265 23.478 65.6302 31.7123C64.3488 37.9374 61.2852 45.3364 57.109 52.5778C52.8274 60.0021 47.9248 66.5433 43.0708 70.786C36.9286 76.155 30.9904 78.0981 27.8808 76.3048C24.8634 74.566 23.7096 68.8633 25.1573 61.2396C26.3804 54.798 29.4499 46.8917 33.8904 39.1886H33.8919Z" stroke="#0021F3" stroke-width="4"/>
<path d="M33.9028 52.5972C29.491 44.9774 26.4873 37.2635 25.2336 30.8615C23.7243 23.1479 24.7913 17.2504 27.8306 15.4912C30.9978 13.6574 36.9895 15.7844 43.2761 21.3665C48.0293 25.5867 52.91 31.9348 57.0982 39.1693C61.3922 46.5865 64.6104 54.1012 65.8623 60.4251C67.4464 68.4281 66.1643 74.5428 63.0575 76.341C60.0432 78.0862 54.5268 76.2387 48.6448 71.1769C43.6752 66.9005 38.3581 60.2929 33.9028 52.5972Z" stroke="#0021F3" stroke-width="4"/>
</g>
<defs>
<clipPath id="clip0_72_132">
<rect width="90" height="90" fill="white" transform="translate(0.5 0.714294)"/>
</clipPath>
</defs>
</svg>
