<svg width="91" height="91" viewBox="0 0 91 91" fill="none" xmlns="http://www.w3.org/2000/svg">
<g clip-path="url(#clip0_72_147)">
<path fill-rule="evenodd" clip-rule="evenodd" d="M21.5938 0.714294H69.4062C81.056 0.714294 90.5 10.1583 90.5 21.808V69.6205C90.5 81.2703 81.056 90.7143 69.4062 90.7143H21.5938C9.94399 90.7143 0.5 81.2703 0.5 69.6205V21.808C0.5 10.1583 9.94399 0.714294 21.5938 0.714294ZM45.5 26.7299C37.0629 26.7299 31.7891 30.9487 29.6797 39.3862C32.8438 35.1674 36.5348 33.5854 40.7539 34.6401C43.161 35.2418 44.8814 36.9881 46.7857 38.9211C49.8879 42.0699 53.4782 45.7143 61.3203 45.7143C69.7575 45.7143 75.0316 41.4952 77.1406 33.058C73.9766 37.2771 70.2855 38.8592 66.0664 37.8041C63.6593 37.2024 61.939 35.4561 60.0346 33.5231C56.9325 30.3743 53.3421 26.7299 45.5 26.7299ZM29.6797 45.7143C21.2422 45.7143 15.9688 49.9334 13.8594 58.3705C17.0234 54.1514 20.7148 52.5694 24.9336 53.6245C27.3407 54.2262 29.061 55.9725 30.9654 57.9055C34.0675 61.0543 37.6579 64.6987 45.5 64.6987C53.9371 64.6987 59.2113 60.4796 61.3203 52.0424C58.1562 56.2615 54.4652 57.8436 50.2461 56.7885C47.839 56.1867 46.1186 54.4405 44.2143 52.5075C41.1121 49.3587 37.5218 45.7143 29.6797 45.7143Z" fill="white"/>
</g>
<defs>
<clipPath id="clip0_72_147">
<rect width="90" height="90" fill="white" transform="translate(0.5 0.714294)"/>
</clipPath>
</defs>
</svg>
